<svg width="16" height="16" viewBox="0 0 36 36" xmlns="http://www.w3.org/2000/svg" aria-hidden="true" role="img" class="iconify iconify--twemoji" preserveAspectRatio="xMidYMid meet"><path fill="#EA596E" d="m29.9 26.7-.1 1a6 6 0 0 1-6.3 4.3c-3-.2-5.4-1.7-5.4-3.7s2.4-3.7 5.4-3.7 6.4 0 6.4 2z"></path><path fill="#DD2E44" d="M23.5 25c-1.6 0-5.3.4-6.1.4-1.5 0-2.7 1-2.7 2.1 0 .6.3 1 .7 1.5 0 0 1 1 2.8.5.8-.2 2.1-1.8 4.4-2 1.1-.2 3.2.7 7 .7l.2-.6c0-2-3.2-2.6-6.3-2.6z"></path><path fill="#F4ABBA" d="M29.8 27.6s2.1-.4 3.5-2.2c1.6-2 1.4-4.3 1.4-4.3 1.6-3-.5-5.8-.5-5.8C34 12 32 10.8 32 10.8c-1.3-3-4-3.8-4-3.8-2.3-2.6-6.2-2.5-6.2-2.5S18 3 13 4.6c-.8.3-3.6.9-5.7 2.1-6.4 4-7 10-6.8 11C1 23.5 5 24.5 7.5 25c.6 1.5 2.7 4.5 6.6 3.4 4.7-.9 6.7-2.3 7.9-2.3s4.4 1.3 7.8 1.5z"></path><g fill="#EA596E"><path d="M17.7 18.6c2.4-1.2 3.6-1 4.7-1h1c2 0 3.7-.8 4.4-1.6a.5.5 0 0 0-.8-.7c-.5.6-1.9 1.3-3.6 1.4h-.9a8 8 0 0 0-5.2 1c-.7.4-1.6.6-2.6.7a6 6 0 0 1-.5-6.6h.1l1.2-.3a.5.5 0 0 0-.5-.9 1.4 1.4 0 0 1-1.9-.5.5.5 0 0 0-.8.6c.2.4.5.6 1 .8-.6 1-1.6 3.9.3 7-1.3.1-2.7.3-3.7 1A7.2 7.2 0 0 0 8 21.2c-.6 0-3-.6-3.3-3.2l.6-.8a.5.5 0 1 0-1-.3.8.8 0 0 1-.4.4.8.8 0 0 1-.7 0 .5.5 0 0 0-.5.8c.3.2.6.3 1 .3a4.9 4.9 0 0 0 3.8 3.8 3.7 3.7 0 0 0-.4 1.2.5.5 0 0 0 .5.5.5.5 0 0 0 .5-.5c.2-1.2 1.3-2.4 2.3-3.1 1-.6 2.4-.8 3.8-.9 1.3-.1 2.6-.2 3.5-.8zm12.9-1.5a.5.5 0 0 0 .9.5s1.8-3.4-1.6-5.7a.5.5 0 0 0-.5.8 3.3 3.3 0 0 1 1.2 4.4zm-20.7-8a.5.5 0 0 0 .4-.2c1.4-2 3.4-1.4 3.5-1.3a.5.5 0 0 0 .4-1c-1-.3-3.2-.4-4.7 1.7a.5.5 0 0 0 .4.8zm13-2a3.5 3.5 0 0 1 3.3 1.6.5.5 0 0 0 .9-.5c0-.1-1.3-2.2-4.2-2a.5.5 0 0 0 0 1zm9.2 14.7c-.2 0-.5.2-.5.4 0 0-.2 1.8-2 2.3a.5.5 0 0 0 .2 1 .5.5 0 0 0 .2 0c2.3-.8 2.5-3 2.6-3.2a.5.5 0 0 0-.5-.5z"></path><path d="M7.3 17a.5.5 0 1 0 1 .2 1.4 1.4 0 0 1 1.7-1 .5.5 0 0 0 .2-1 2.4 2.4 0 0 0-1.3 0 7 7 0 0 1-1-3.9.5.5 0 0 0-.3-.6.5.5 0 0 0-.6.5s-.3 2.3 1 4.6a2.4 2.4 0 0 0-.7 1.1zm11.2-2.5a1 1 0 0 1 1.5 0 .5.5 0 0 0 .7 0 .5.5 0 0 0 0-.7 2 2 0 0 0-.8-.5c.3-1 .2-1.5-.1-2.3a20.6 20.6 0 0 1-.2-.5v-.1c-.4-1.2-.6-2 0-3.1a.5.5 0 0 0-.8-.6c-.9 1.5-.6 2.7-.2 4l.2.6c.3.8.4 1 0 2a2 2 0 0 0-1 .4.5.5 0 0 0 .7.8zm6.4-3a2 2 0 0 0 .8-.2.5.5 0 0 0-.4-1A1 1 0 0 1 24 10a.5.5 0 1 0-.8.5c.1.3.4.6.7.8a5 5 0 0 0 0 3.4.5.5 0 1 0 1-.3c-.2-.5-.5-1.8 0-2.8zm4.8 9.4a.5.5 0 0 0-.5-.5 1.8 1.8 0 0 1-2-1.7.5.5 0 0 0-.5-.4.5.5 0 0 0-.5.5c0 .6.3 1.1.6 1.6-.8 1-1.8 1.2-2.4 1.2h-1.5l-1.7-.1c0-.3-.1-.7-.3-1a.5.5 0 0 0-.9.5c.2.2.2.5.2.7l-1.4.7c-.7.5-1.2.8-2 .6a6 6 0 0 0-2.2 0l-.5-.9a.5.5 0 0 0-.7.8l.2.3a4 4 0 0 0-1.7 1.2.5.5 0 0 0 .4.8.5.5 0 0 0 .4-.2s.6-.7 1.7-1c.5-.2 1.3-.2 2.1 0h.7v.7a.5.5 0 0 0 .6.4.5.5 0 0 0 .5-.5 3 3 0 0 0-.1-.7l1.2-.7c.6-.3 1.1-.7 1.8-.7h1.6c.4.1.9.2 1.4.1.1.3.1.6 0 .8a.5.5 0 0 0 .6.5.5.5 0 0 0 .5-.4 2.9 2.9 0 0 0 0-1 4.7 4.7 0 0 0 2.3-1.5 2.8 2.8 0 0 0 1.6.4.5.5 0 0 0 .5-.5z"></path></g></svg>